Coordinates
version=1
nRows=11
nColumns=33
inDegrees=yes

Units are S.I. units (second, meters, Newtons, ...)
Angles are in degrees.

endheader
time	ground_thorax_rot_x	ground_thorax_rot_y	ground_thorax_rot_z	ground_thorax_tx	ground_thorax_ty	ground_thorax_tz	clav_prot_r	clav_elev_r	scapula_abduction_r	scapula_elevation_r	scapula_upward_rot_r	scapula_winging_r	shoulder_elv_r	plane_of_elev_r	axial_rot_r	elbow_flexion_r	pro_sup_r	wrist_flex_r	wrist_dev_r	clav_prot_l	clav_elev_l	scapula_abduction_l	scapula_elevation_l	scapula_upward_rot_l	scapula_winging_l	shoulder_elv_l	plane_of_elev_l	axial_rot_l	elbow_flexion_l	pro_sup_l	wrist_flex_l	wrist_dev_l	
9.3200	18.143870	36.561029	55.516730	-41.104931	783.590493	17.620957	14.908442	45.000000	45.000000	41.974417	45.000000	-2555.289568	-1604.515557	-90.000000	-98.881277	355.209855	-85.378045	16.134812	9.411998	10.234325	-45.000000	-39.808036	45.000000	-45.000000	812.139010	-2813.120661	16.318468	-65.737460	-352.557190	27.557908	8.768371	-18.822920	
9.3300	18.135453	36.585595	55.508930	-41.494125	783.495990	17.636635	14.911817	45.000000	45.000000	41.988267	45.000000	-2555.237229	-1604.460346	-90.000000	-98.926613	355.252964	-85.421562	16.119234	9.444008	10.180146	-45.000000	-39.766633	45.000000	-45.000000	812.169870	-2813.100681	16.315893	-65.742187	-352.573404	27.508440	8.808201	-18.840009	
9.3400	18.127629	36.621146	55.511015	-41.902851	783.392504	17.642825	14.913689	45.000000	45.000000	42.023679	45.000000	-2555.192646	-1604.395997	-90.000000	-98.981053	355.297415	-85.473061	16.070694	9.500916	10.116722	-45.000000	-39.712175	45.000000	-45.000000	812.187074	-2813.076799	16.300341	-65.745640	-352.599174	27.462761	8.884603	-18.884941	
9.3500	18.129932	36.644951	55.494432	-42.352837	783.266084	17.628503	14.918667	45.000000	45.000000	42.050370	45.000000	-2555.143995	-1604.342452	-90.000000	-99.024665	355.337974	-85.548685	16.047511	9.540822	10.080427	-45.000000	-39.678171	45.000000	-45.000000	812.217240	-2813.053106	16.297417	-65.729775	-352.617525	27.413707	8.927886	-18.904280	
9.3600	18.141084	36.663056	55.465397	-42.848406	783.119299	17.592291	14.925114	45.000000	45.000000	42.079767	45.000000	-2555.097542	-1604.293298	-90.000000	-99.063851	355.379306	-85.649395	16.047144	9.568521	10.056403	-45.000000	-39.656801	45.000000	-45.000000	812.255250	-2813.030547	16.301486	-65.702483	-352.632247	27.365173	8.953667	-18.910935	
9.3700	18.160682	36.676482	55.428530	-43.397046	782.952938	17.531407	14.932288	45.000000	45.000000	42.110689	45.000000	-2555.047659	-1604.245705	-90.000000	-99.101436	355.421307	-85.774800	16.037421	9.604610	10.044018	-45.000000	-39.639093	45.000000	-45.000000	812.295642	-2813.003024	16.306708	-65.665010	-352.644807	27.320262	8.977384	-18.918492	
9.3800	18.188712	36.684842	55.380617	-44.001567	782.771966	17.445764	14.939974	45.000000	45.000000	42.146639	45.000000	-2555.001040	-1604.199741	-90.000000	-99.137348	355.468866	-85.927680	16.057013	9.627570	10.036668	-45.000000	-39.632311	45.000000	-45.000000	812.344940	-2812.976509	16.318955	-65.623056	-352.651974	27.281175	8.984407	-18.916614	
9.3900	18.222562	36.691407	55.331880	-44.662902	782.582578	17.336508	14.946825	45.000000	45.000000	42.186861	45.000000	-2554.950183	-1604.151611	-90.000000	-99.175372	355.520623	-86.101341	16.048814	9.671373	10.031970	-45.000000	-39.620279	45.000000	-45.000000	812.392494	-2812.942082	16.326962	-65.580686	-352.657455	27.252769	9.000742	-18.927275	
9.4000	18.263014	36.693743	55.273548	-45.381875	782.389954	17.204903	14.953529	45.000000	45.000000	42.233834	45.000000	-2554.904505	-1604.103739	-90.000000	-99.213080	355.581197	-86.300036	16.080135	9.699140	10.028307	-45.000000	-39.619137	45.000000	-45.000000	812.450753	-2812.909018	16.343597	-65.539492	-352.654445	27.235352	8.998780	-18.929618	
9.4100	18.306517	36.697036	55.217415	-46.159829	782.198174	17.052232	14.959240	45.000000	45.000000	42.289805	45.000000	-2554.858236	-1604.054783	-90.000000	-99.251781	355.645965	-86.516674	16.076042	9.750377	10.029251	-45.000000	-39.612874	45.000000	-45.000000	812.505896	-2812.867222	16.355174	-65.498899	-352.648431	27.232428	9.004315	-18.944140	
9.4200	18.355044	36.702942	55.154208	-46.997930	782.010600	16.879950	14.964562	45.000000	45.000000	42.364773	45.000000	-2554.826585	-1604.007430	-90.000000	-99.288757	355.718572	-86.757695	16.117447	9.783965	10.031778	-45.000000	-39.617140	45.000000	-45.000000	812.569461	-2812.827922	16.375270	-65.461960	-352.633727	27.243077	8.993332	-18.951773	
